<svg xmlns="http://www.w3.org/2000/svg" viewBox="0 0 200 200" width="200" height="200">
  <rect x="0" y="0" width="200" height="200" rx="46" fill="#B11226"></rect>
  
  <path d="M56 60 L144 60 L172 92 L100 166 L70 136 L15 150 L45 110 L28 92 Z" fill="#fff"></path>
  <path d="M56 60 L60 92 L28 92 Z" fill="#E8D0D4"></path>
  <path d="M144 60 L140 92 L172 92 Z" fill="#E8D0D4"></path>
  <path d="M60 92 L140 92 L100 166 Z" fill="#F0D8DB"></path>
  <path d="M45 110 L15 150 L70 136 Z" fill="#E8D0D4"></path>
  <path d="M28 92 L172 92" stroke="#B11226" stroke-width="4"></path>
  <path d="M56 60 L60 92 M144 60 L140 92 M100 60 L100 92" stroke="#B11226" stroke-width="4"></path>
  <path d="M45 110 L15 150 L70 136" fill="none" stroke="#B11226" stroke-width="4" stroke-linecap="round" stroke-linejoin="round"></path>
  <path d="M64 92 L100 158 L160 92" stroke="#B11226" stroke-width="11" stroke-linecap="round" stroke-linejoin="round"></path>

</svg>