<svg xmlns="http://www.w3.org/2000/svg" viewBox="0 0 256 56" width="256" height="56" fill="none"><defs><linearGradient id="g" x1="40" y1="5" x2="40" y2="75" gradientUnits="userSpaceOnUse"><stop offset="0%" stop-color="#7C3AED"></stop><stop offset="38%" stop-color="#EC4899"></stop><stop offset="72%" stop-color="#F97316"></stop><stop offset="100%" stop-color="#FBBF24"></stop></linearGradient><linearGradient id="gi" x1="24" y1="20" x2="58" y2="60" gradientUnits="userSpaceOnUse"><stop offset="0%" stop-color="#FDE68A" stop-opacity="0.72"></stop><stop offset="100%" stop-color="#F97316" stop-opacity="0.5"></stop></linearGradient></defs><g transform="translate(2,5) scale(0.64)"><polygon points="40,5 69,22 69,58 40,75 11,58 11,22" fill="url(#g)"></polygon><polygon points="40,22 55,31 55,49 40,58 25,49 25,31" fill="url(#gi)"></polygon><line x1="40" y1="5" x2="40" y2="22" stroke="rgba(255,220,50,0.7)" stroke-width="0.9"></line><line x1="69" y1="22" x2="55" y2="31" stroke="rgba(255,220,50,0.7)" stroke-width="0.9"></line><line x1="69" y1="58" x2="55" y2="49" stroke="rgba(255,220,50,0.7)" stroke-width="0.9"></line><line x1="40" y1="75" x2="40" y2="58" stroke="rgba(255,220,50,0.7)" stroke-width="0.9"></line><line x1="11" y1="58" x2="25" y2="49" stroke="rgba(255,220,50,0.7)" stroke-width="0.9"></line><line x1="11" y1="22" x2="25" y2="31" stroke="rgba(255,220,50,0.7)" stroke-width="0.9"></line></g><text x="58" y="37" font-family="Space Grotesk, sans-serif" font-size="25" font-weight="500" fill="#F0EEF8">feedy</text><text x="121" y="37" font-family="Space Grotesk, sans-serif" font-size="25" font-weight="700" fill="#EC4899">ruby</text></svg>